<?xml version="1.0" encoding="UTF-8" ?>
<!DOCTYPE svg PUBLIC "-//W3C//DTD SVG 1.1//EN" "http://www.w3.org/Graphics/SVG/1.1/DTD/svg11.dtd">
<svg width="99pt" height="16pt" viewBox="0 0 99 16" version="1.1" xmlns="http://www.w3.org/2000/svg">
<g id="#fefefeff">
</g>
<g id="#2d282bff">
<path fill="white" opacity="1.00" d=" M 7.19 1.82 C 10.31 1.98 15.67 0.76 16.37 4.99 C 17.29 8.71 13.21 10.02 10.29 9.88 C 10.07 11.59 9.86 13.30 9.66 15.01 C 9.05 15.00 7.83 14.99 7.22 14.98 C 7.14 10.59 7.15 6.21 7.19 1.82 M 10.28 3.49 C 10.14 5.03 10.00 6.57 9.87 8.11 C 11.20 7.75 12.52 7.37 13.83 6.94 C 13.76 6.32 13.63 5.10 13.57 4.48 C 12.47 4.14 11.37 3.81 10.28 3.49 Z" />
<path fill="white" opacity="1.00" d=" M 18.08 1.76 C 18.75 1.84 20.08 2.00 20.74 2.08 C 20.74 3.17 20.75 5.35 20.75 6.44 C 23.03 4.65 24.45 1.26 27.84 1.60 C 26.61 3.72 25.17 5.70 23.55 7.54 C 25.27 10.22 27.73 12.66 28.05 15.99 C 24.47 15.07 23.43 11.24 21.04 8.89 C 20.82 10.92 20.68 12.96 20.60 15.00 C 19.98 14.99 18.75 14.99 18.13 14.98 C 17.87 10.58 17.88 6.17 18.08 1.76 Z" />
<path fill="white" opacity="1.00" d=" M 30.04 3.78 C 31.56 1.44 34.59 1.91 36.99 1.82 C 38.02 2.98 39.02 4.15 39.97 5.37 C 37.24 6.14 35.23 3.34 32.42 4.20 C 31.50 6.93 30.62 10.58 33.27 12.67 C 34.88 13.69 36.23 11.96 37.58 11.35 C 38.96 11.14 40.37 11.11 41.76 10.98 C 43.06 13.11 47.27 14.25 47.02 10.52 C 45.18 9.34 42.97 8.95 41.16 7.74 C 39.52 5.88 40.40 2.08 43.13 1.91 C 45.55 1.42 49.17 1.96 48.86 5.21 C 46.76 4.49 44.55 3.80 42.34 4.55 C 43.61 8.01 49.64 6.89 49.48 11.11 C 49.45 16.17 41.43 16.22 39.76 12.00 C 38.22 14.44 35.11 15.85 32.34 14.61 C 28.25 12.92 28.01 7.13 30.04 3.78 Z" />
<path fill="white" opacity="1.00" d=" M 49.70 1.63 C 50.31 1.74 51.52 1.94 52.12 2.05 C 53.50 4.72 53.71 7.81 54.63 10.65 C 57.21 7.94 55.51 2.10 59.97 1.45 C 61.03 4.68 61.93 7.96 62.89 11.22 C 64.04 8.31 64.51 5.21 65.49 2.26 C 66.14 2.08 67.44 1.73 68.08 1.55 C 67.10 5.97 66.06 10.41 64.55 14.68 C 63.90 14.78 62.60 14.97 61.95 15.07 C 60.48 12.32 60.45 9.00 58.73 6.35 C 57.81 9.28 56.98 12.22 56.09 15.16 C 55.38 15.08 53.96 14.93 53.25 14.86 C 52.08 10.44 50.76 6.07 49.70 1.63 Z" />
<path fill="white" opacity="1.00" d=" M 72.21 3.01 C 72.54 1.37 75.34 1.20 75.89 2.74 C 77.70 6.84 79.07 11.12 80.56 15.34 C 78.19 15.50 77.29 13.54 76.34 11.80 C 74.86 11.80 73.37 11.81 71.89 11.83 C 71.00 13.60 70.12 15.65 67.70 15.22 C 69.15 11.13 70.60 7.04 72.21 3.01 M 74.09 4.72 C 73.44 6.36 72.79 7.99 72.12 9.62 C 73.45 9.72 74.78 9.82 76.11 9.90 C 75.45 8.17 74.83 6.42 74.09 4.72 Z" />
<path fill="white" opacity="1.00" d=" M 81.75 1.82 C 84.16 1.96 86.73 1.45 89.03 2.33 C 91.74 3.56 91.56 8.18 88.81 9.24 C 87.38 9.61 85.92 9.87 84.45 10.05 C 84.45 11.64 84.47 13.24 84.49 14.83 C 83.80 14.90 82.42 15.03 81.74 15.09 C 81.73 10.67 81.73 6.24 81.75 1.82 M 84.44 3.80 C 84.42 5.19 84.40 6.57 84.39 7.96 C 85.95 7.74 89.23 7.56 88.07 5.13 C 87.91 3.37 85.59 4.21 84.44 3.80 Z" />
</g>
</svg>
